<svg xmlns="http://www.w3.org/2000/svg" viewBox="0 0 142.99 137.12"><defs><style>.cls-1{fill:#283370;}.cls-2{fill:#fff;}.cls-3{fill:#243166;}.cls-4{fill:#1c2651;}.cls-5{fill:#fdb929;}</style></defs><g id="Layer_2" data-name="Layer 2"><g id="Layer_1-2" data-name="Layer 1"><path class="cls-1" d="M142.87,73.55l-8.22,2.16c0,.29-.09.57-.13.85l-6.72,5.09L143,73.81C142.94,73.72,142.91,73.63,142.87,73.55Z"/><path class="cls-2" d="M50.13,110.79a2.78,2.78,0,0,1-.73,2.36c.37-.17.72-.35,1-.46C50.3,111.86,50.18,111.3,50.13,110.79Zm-2-5-1.52-.09,1.52.1a.51.51,0,0,0,.31-.1A.57.57,0,0,1,48.13,105.77Z"/><path class="cls-2" d="M58.61,109.91c-.46,1.1-1,2.4-2.64,1.13C56.88,111,58.29,110.68,58.61,109.91Z"/><path class="cls-2" d="M59.14,107.11A8.08,8.08,0,0,0,57.83,104a15.82,15.82,0,0,1,1.65,2.82Z"/><path class="cls-2" d="M101.51,87.65,88.78,94l-.2-.4,12.73-6.34Z"/><path class="cls-3" d="M49.18,104.78a1.72,1.72,0,0,1-.74.9.51.51,0,0,1-.31.1l-1.52-.1L42,105.4,36,105q-3-.21-6.08-.45T23.81,104c-2.72-.29-5.33-1.74-8-2.74l-.63-.26a3.1,3.1,0,0,1-.32-.17,1.29,1.29,0,0,1-.57-.66,2,2,0,0,1-.08-.31,5.73,5.73,0,0,1,0-1.13.66.66,0,0,1,.74-.62H15l1.07.25.44.1a12.71,12.71,0,0,1,2.09.65c4.47,1.88,9.19,2.23,13.92,2.51,4.93.29,9.86.63,14.79.81C49.13,102.5,49.44,103.4,49.18,104.78Z"/><path class="cls-3" d="M49.2,109.54v.92A1.19,1.19,0,0,1,48,111.65a25.61,25.61,0,0,1-2.63,0l-2.91-.23-1.75-.13c-3.1-.23-6.21-.45-9.3-.79-.77-.08-1.54-.18-2.31-.28s-1.54-.21-2.31-.33l-.7-.12-.7-.15c-.41-.09-.81-.19-1.21-.3l-.86-.25c-.31-.09-.63-.19-.94-.3l-1.11-.38c-1.81-.64-3.61-1.37-5.43-2l-.32-.13a1.7,1.7,0,0,1-.68-.54.68.68,0,0,1-.14-.23.7.7,0,0,1-.08-.2,1.05,1.05,0,0,1-.05-.19.8.8,0,0,1,0-.15,2.36,2.36,0,0,1,0-.65.78.78,0,0,1,0-.16,2.33,2.33,0,0,1,.06-.35,0,0,0,0,1,0,0,.5.5,0,0,1,.7-.34c.16.07.32.15.48.21s.57.26.86.37c.48.21,1,.4,1.46.58.26.11.52.2.78.29s.67.24,1,.34.66.22,1,.31.77.24,1.15.34l1.06.28,1.06.26.85.19,1.07.22c.36.08.72.14,1.07.2s.71.13,1.07.18l1.08.17c.43.07.85.13,1.28.18l1.54.18q.86.11,1.71.18c.72.07,1.44.13,2.17.18,2,.17,4.08.28,6.13.39q2.41.12,4.83.27l1.53.09.14,0A.73.73,0,0,1,49.2,109.54Z"/><path class="cls-4" d="M105.42,38.16s-4,.43-5.17,2.76c-.71,1.38,0,3.08.48,4.27l-5.8,3.21a2.94,2.94,0,0,1,.08.53,3,3,0,1,1-3.18-2.78,3.05,3.05,0,0,1,.43,0l.2-4.06a5.63,5.63,0,0,0,3.35-2.55c1.09-2.37-1.08-5.62-1.08-5.62s-3.94.61-5,3a5.08,5.08,0,0,0,.16,3.78l-3,2.9a2.75,2.75,0,0,1,.21.91,3,3,0,0,1-6,.33,2.88,2.88,0,0,1,.62-1.94l-4-6.57a4.28,4.28,0,0,0,.88-2.64C78.42,31.1,75,29.17,75,29.17s-3.23,2.29-3.09,4.89A4.33,4.33,0,0,0,73,36.58l-3.26,7a2.84,2.84,0,0,1,.83,1.85,3,3,0,0,1-6,.33,2.89,2.89,0,0,1,.1-.93l-3.25-2.57a5,5,0,0,0-.25-3.77C59.82,36.22,55.83,36,55.83,36s-1.81,3.46-.46,5.7A5.57,5.57,0,0,0,59,43.91l.63,4a3.18,3.18,0,0,1,.43-.06A2.94,2.94,0,1,1,57.17,51a3.09,3.09,0,0,1,0-.53L51.4,47.86a5.45,5.45,0,0,0-.3-4.28c-1.45-2.18-5.44-2.19-5.44-2.19s-1.65,3.54-.2,5.72a5.8,5.8,0,0,0,3.88,2L58,67.77v0l19-1,19-1h0l6.58-19.45a5.79,5.79,0,0,0,3.64-2.45C107.44,41.5,105.42,38.16,105.42,38.16ZM47.89,46a1.38,1.38,0,1,1,1.35-1.45A1.39,1.39,0,0,1,47.89,46Zm46,12.64a1.08,1.08,0,1,1-1,1.14A1.1,1.1,0,0,1,93.84,58.6Zm-5.75.31a1.11,1.11,0,0,1,1.17,1,1.11,1.11,0,1,1-1.17-1Zm-5.74.31a1.08,1.08,0,1,1-1,1.14A1.11,1.11,0,0,1,82.35,59.22ZM75.13,32.3a1.38,1.38,0,1,1-1.34,1.46A1.4,1.4,0,0,1,75.13,32.3Zm.62,11.31L78,46.4l-2,3-2.29-2.78Zm2,16.94a1.11,1.11,0,1,1-1.16-1A1.08,1.08,0,0,1,77.77,60.55Zm-6.9-.7a1.08,1.08,0,0,1,1.16,1A1.1,1.1,0,0,1,71,62a1.08,1.08,0,1,1-.11-2.15Zm-5.75.31a1.08,1.08,0,1,1,.12,2.15,1.1,1.1,0,0,1-1.17-1A1.09,1.09,0,0,1,65.12,60.16Zm-5.74.31a1.08,1.08,0,1,1-1.05,1.13A1.1,1.1,0,0,1,59.38,60.47ZM65,66l-5.85.32a.61.61,0,1,1-.07-1.21l35.59-1.93a.62.62,0,0,1,.66.57.62.62,0,0,1-.6.64L81.89,65Zm38.66-23A1.38,1.38,0,1,1,105,41.49,1.4,1.4,0,0,1,103.64,43Z"/><path class="cls-4" d="M23.48,32.44l-1.29-.32-1.13-.28-.84-.2.33.54.56.89c.21.35.46.74.74,1.18l.9,1.42,2.06-2.89Zm0,0-1.29-.32-1.13-.28-.84-.2.33.54.56.89c.21.35.46.74.74,1.18l.9,1.42,2.06-2.89Zm0,0-1.29-.32-1.13-.28-.84-.2.33.54.56.89c.21.35.46.74.74,1.18l.9,1.42,2.06-2.89Zm0,0-1.29-.32-1.13-.28-.84-.2.33.54.56.89c.21.35.46.74.74,1.18l.9,1.42,2.06-2.89Zm0,0-1.29-.32-1.13-.28-.84-.2.33.54.56.89c.21.35.46.74.74,1.18l.9,1.42,2.06-2.89Zm0,0-1.29-.32-1.13-.28-.84-.2.33.54.56.89c.21.35.46.74.74,1.18l.9,1.42,2.06-2.89Zm0,0-1.29-.32-1.13-.28-.84-.2.33.54.56.89c.21.35.46.74.74,1.18l.9,1.42,2.06-2.89Zm0,0-1.29-.32-1.13-.28-.84-.2.33.54.56.89c.21.35.46.74.74,1.18l.9,1.42,2.06-2.89Zm0,0-1.29-.32-1.13-.28-.84-.2.33.54.56.89c.21.35.46.74.74,1.18l.9,1.42,2.06-2.89Zm0,0-1.29-.32-1.13-.28-.84-.2.33.54.56.89c.21.35.46.74.74,1.18l.9,1.42,2.06-2.89ZM129.71,84l7.73-4-.15-.37L127.92,82l-.12-.35,6.72-5.09c0-.28.09-.56.13-.85a66.3,66.3,0,0,0-75.2-75A66.24,66.24,0,0,0,3.51,75.87a66.9,66.9,0,0,0,3.2,12.81c-1.21.56-2.55,1.16-3.87,1.8A4.32,4.32,0,0,0,.27,94.42c-.22,2.89-.46,5.7,1.05,8.12L0,104a8.18,8.18,0,0,0,1.53.78c3.54.91,7.11,1.69,10.62,2.69a17.85,17.85,0,0,1,3.41,1.9L1.15,105.62c1.72,3.34,3.67,6.08,7.41,6.73a1.83,1.83,0,0,1,1.29,1.1c1,5.1,4.41,7.68,9.12,8.78,3.82.9,7.82,1.28,10.93-1.7,1.52-1.45,2.66-1.51,4.49-1,11.17,3.46,22,8.54,34.07,8,.18.51.34.86.44,1.23,1.91,7.4,12,10.86,18.14,6.27q10.74-8,21.53-15.93l4.94-3.68-.21-.3-22,13.44-.29-.42,13.56-10-.18-.27-12.58,7.65c.29-3.11,1-5.45,3.92-7a92.58,92.58,0,0,0,11.32-7c3.37-2.41,6.76-3.54,10.91-2.68a6.1,6.1,0,0,0,4.39-.77c2.77-2,5.21-4.48,7.79-6.77l-.33-.38-4.74,2.28c.22-2.77.37-5.25.64-7.73a2.14,2.14,0,0,1,.87-1.18c2.18-1.69,4.24-3.67,4.52-6.43.24-2.31,1.1-3.61,3.16-4.32.15,0,.26-.23.58-.53l-5,1.15C129.78,84.18,129.74,84.08,129.71,84ZM115.79,71.09l-6.33-3.7c-3.33-.47-6.65-1.1-10-1.39L96,65.72c-4.71-.36-9.42-.63-14.13-.68A114,114,0,0,0,65,66q-2.06.26-4.11.63A12.94,12.94,0,0,0,58,67.77l-.19.09c1.85-.06,3.7-.24,5.55-.15,11.28.58,22.55,1.22,33.83,1.84.38,0,.75.1,1.27.16V84.84l-6.56-.31v-.22H98c0-4.46,0-8.74-.07-13,0-.41-1-1.11-1.51-1.16-3.84-.36-7.68-.65-11.52-.84-8.53-.4-17.06-.74-25.59-1.11a13.08,13.08,0,0,1-1.5-.26c-3,3-6.48,5.48-8.42,9.53-.65,1.34-2.72,2.42-4.33,2.82-5.59,1.37-11.28,2.35-16.91,3.56-1.35.29-2,0-2.37-1.38-.42-1.66-1-3.29-1.5-5.08l17.27-5.89c0-.1,0-.2-.08-.3L24.05,74.59c-.75-1.31.16-1.4,1-1.58l21.85-4.54A16.18,16.18,0,0,0,51,67.22c-7.85.58-19.66.91-28.84,1.43a47,47,0,1,1,93.64,2.44Zm-10.56,1.1c1.51.68,3,1.49,4.41,2.32,1.26.72,2.32,1.57.3,2.81l5.58,1.9c0,.3,0,.6,0,.89l-14,3.1a11.21,11.21,0,0,1-.2-1.34c0-3.51,0-7,0-11C102.79,71.36,104.06,71.66,105.23,72.19Zm-4.54-1.85V84.78h-.41V69.88c3.37-.7,11.2-.26,12.44.46ZM56,111h0l-.65,0h-.1a3.46,3.46,0,0,1-4-2.61,29.41,29.41,0,0,1-.57-3.4c-.36-2.52.67-3.57,3.16-3a9.59,9.59,0,0,1,3.79,1.62l.2.18,0,0,0,0h0l0,0a8.08,8.08,0,0,1,1.31,3.14,12.84,12.84,0,0,1-.53,2.8C58.29,110.68,56.88,111,56,111ZM51.38,94.32a14.66,14.66,0,0,0-4.87,3.05c-1.85,1.92-3.92,2.1-6.27,1.95-3.81-.25-7.63-.45-12.08-.71,1.12-1.34,1.68-2.41,2.57-3a42.63,42.63,0,0,1,7.21-4.37c7.85-3.29,15.83-6.3,23.76-9.42a2.78,2.78,0,0,1,1.09-.32,72.13,72.13,0,0,1,9.61,1l-4.13,1.65.18.85c4.64-3.13,9.57-2.63,13.29-1.82-3,.91-7.12,2-11.1,3.44C64.16,89,57.75,91.66,51.38,94.32ZM24.92,96.39a2.52,2.52,0,0,1-2.89.8c-2.14-.67-4.33-1.21-6.48-1.82-.16-.05-.28-.25-.5-.46a21.81,21.81,0,0,1,9.25-6c8.51-2.63,17.08-5.07,25.61-7.64,3.61-1.08,7.16-.41,10.73.07C49.41,83,39.31,87.76,29.27,92.64A17.69,17.69,0,0,0,24.92,96.39ZM65.2,103.9c1.24.29,2.62.41,2.85,2,.3,2.09.7,4.29-.73,6.06-.46.56-1.75.45-2.65.65-3-.2-4.13-1.16-4.59-4.11C59.27,103.26,60,102.64,65.2,103.9Zm4.32-4.83a26,26,0,0,1,5.35-3.69c4.12-1.87,8.4-3.4,12.62-5.07-5.58,4-12.68,6-15.9,13.37l-3.25-.59A3.5,3.5,0,0,1,69.52,99.07ZM49.46,78.9c3-3.37,5.73-6.49,8.53-9.56a1.88,1.88,0,0,1,1.38-.41c12.43.85,24.86,1.74,37.44,2.64v12Zm57-62.17a6.85,6.85,0,0,0,.56.58l.72.65.62.55.61.54.71.63.71.62.63.54.63.53.73.63a6.36,6.36,0,0,0,.64.46c.18.1.38.2.58.29l-1.48,2.39-.13-.05a4.45,4.45,0,0,0,.15-.58c0-.21.08-.41.1-.6s0-.38.06-.55a1.75,1.75,0,0,0,0-.41,1.46,1.46,0,0,0-.23-.71,4.78,4.78,0,0,0-.6-.67c-.14-.12-.26-.22-.35-.31a3.65,3.65,0,0,0-.3-.27l-.31-.28-.4-.34c-.15.18-.37.42-.64.72l-.85,1-.87,1-.72.81L105,26.24l-.51.61a1.07,1.07,0,0,0-.25.49,1.06,1.06,0,0,0,.18.72,6.86,6.86,0,0,0,.41.6l-.09.1-3.48-3.05.09-.11a3.35,3.35,0,0,0,.63.37,1.41,1.41,0,0,0,.81.08A.47.47,0,0,0,103,26l.29-.24.31-.32.32-.35.35-.39.49-.54.55-.62.54-.61L109,19.33l-.4-.34-.31-.28-.3-.25-.37-.31a3.27,3.27,0,0,0-.75-.49,1.83,1.83,0,0,0-1.15-.07l-.52.12a5.12,5.12,0,0,0-.57.17,3.13,3.13,0,0,0-.52.24L104,18l2.11-1.75C106.23,16.43,106.36,16.59,106.48,16.73ZM99,17.88l1.5-2.34c.1-.14.19-.29.28-.43s.17-.28.24-.42a2.3,2.3,0,0,0,.16-.37.66.66,0,0,0,0-.3,1.14,1.14,0,0,0-.22-.56,3.62,3.62,0,0,0-.48-.48l.08-.12,3.58,2.29-.07.13a3.32,3.32,0,0,0-.63-.22.94.94,0,0,0-.69.1,1.41,1.41,0,0,0-.44.44l-.4.58c-.12.2-.25.4-.38.59l-.39.59-.4.63-.44.68-1.73,2.71-.42.68a1,1,0,0,0-.18.53,1,1,0,0,0,.25.6,2.49,2.49,0,0,0,.48.49l-.07.12L95,21.48l.08-.12a3.23,3.23,0,0,0,.65.2,1.38,1.38,0,0,0,.64,0,.58.58,0,0,0,.22-.15l.25-.28q.14-.17.27-.36l.25-.39.3-.45.41-.62c.15-.23.31-.46.46-.7S98.85,18.1,99,17.88Zm-12.09-.49a2.73,2.73,0,0,0,.68.1,1.38,1.38,0,0,0,.61-.11.63.63,0,0,0,.2-.18,2.78,2.78,0,0,0,.23-.31,3.64,3.64,0,0,0,.23-.39,3.17,3.17,0,0,0,.21-.41c.06-.12.13-.29.23-.49l.33-.68.35-.75.34-.75,1.16-2.53c.07-.15.14-.32.21-.48s.14-.33.19-.48A2.72,2.72,0,0,0,92,9.51a.62.62,0,0,0,0-.31,1,1,0,0,0-.29-.46l-.52-.37.06-.13,7.2,3.3-.11,2.58h-.16a15.12,15.12,0,0,0-.5-1.59A4.14,4.14,0,0,0,97,11.42a2.91,2.91,0,0,0-.71-.54A13,13,0,0,0,95,10.2l-.3-.13-.33-.14-.3-.12-.2-.09a1.71,1.71,0,0,1-.11.14l-.11.17-.15.26-.21.38-.47,1c-.17.36-.33.7-.47,1s-.28.59-.38.82l-.19.41L92,14l.46.2.54.21a4.12,4.12,0,0,0,.48.15,2.74,2.74,0,0,0,.87.06,1.52,1.52,0,0,0,.61-.2,2,2,0,0,0,.45-.41c.13-.17.26-.35.39-.55l.16.07L94.08,17.7l-.16-.07a6.12,6.12,0,0,0,.11-1,2.12,2.12,0,0,0-.15-.92,1.87,1.87,0,0,0-.37-.57,2.33,2.33,0,0,0-.59-.44l-.33-.17-.27-.13-.27-.13-.35-.16c-.13.28-.25.56-.38.83s-.24.53-.36.78l-.3.67c-.08.21-.16.38-.23.53s-.22.55-.31.8a1.47,1.47,0,0,0-.11.62.89.89,0,0,0,.27.46,3.42,3.42,0,0,0,.76.5l-.06.13-4.15-1.9Zm-13-3a4,4,0,0,0,.7,0,1.1,1.1,0,0,0,.55-.21.83.83,0,0,0,.16-.24,2.25,2.25,0,0,0,.13-.37,4.46,4.46,0,0,0,.11-.46c0-.16.07-.32.1-.47s.06-.3.1-.53.1-.46.15-.72l.15-.83q.08-.44.15-.81L76.71,7c.06-.35.11-.68.14-1a1.23,1.23,0,0,0-.07-.68,1.16,1.16,0,0,0-.41-.44,2.44,2.44,0,0,0-.61-.27l0-.14,4.34.8,0,.14-.53,0a1,1,0,0,0-.49.13,1.2,1.2,0,0,0-.42.42,2.82,2.82,0,0,0-.32.88c0,.22-.09.42-.13.6s-.08.4-.12.65-.1.53-.17.88-.14.77-.24,1.29a5.84,5.84,0,0,0,.78-.4c.33-.2.68-.42,1.05-.67l1.11-.78c.37-.27.69-.5,1-.71a5,5,0,0,0,.53-.49,1,1,0,0,0,.29-.5.67.67,0,0,0-.17-.64,1.81,1.81,0,0,0-.6-.36l0-.14,3.76.7,0,.14a3,3,0,0,0-1.55.33,19.06,19.06,0,0,0-1.72,1l-.71.46-.72.51-.7.48-.62.45c0,.1.19.34.4.7s.47.79.76,1.28.62,1,1,1.57.66,1.09,1,1.6a2.2,2.2,0,0,0,.26.39,4,4,0,0,0,.29.37l.25.29a.55.55,0,0,0,.15.14,3,3,0,0,0,.47.23,4.64,4.64,0,0,0,.69.23l0,.14L81.38,16l-.11-.1a1.06,1.06,0,0,1-.13-.18c-.47-.8-.91-1.56-1.34-2.28s-.86-1.45-1.32-2.2a5.28,5.28,0,0,0-.4-.59.37.37,0,0,0-.22-.14c-.07,0-.13,0-.15,0a.61.61,0,0,0-.11.14c-.09.49-.18.95-.26,1.39s-.14.8-.19,1.11a7.47,7.47,0,0,0-.08.77,1,1,0,0,0,.08.56.77.77,0,0,0,.22.29,1.69,1.69,0,0,0,.34.23,2.92,2.92,0,0,0,.36.17l.32.11,0,.14-4.5-.83ZM63,9a4.89,4.89,0,0,1,.12-.7,5.21,5.21,0,0,1,.23-.78,6.29,6.29,0,0,1,.4-.83,5.8,5.8,0,0,1,.72-.95,5,5,0,0,1,1-.8,5.62,5.62,0,0,1,1.34-.56,6.21,6.21,0,0,1,1.69-.24,6.8,6.8,0,0,1,1.5.12,6.65,6.65,0,0,1,1.07.32,4.77,4.77,0,0,1,.67.32,1,1,0,0,0,.26.16S72,5,72.09,5l.17-.16.19-.22.18-.25h.15l.08,3.19-.17,0a5.06,5.06,0,0,0-.59-1.27,4.4,4.4,0,0,0-.9-1,4.13,4.13,0,0,0-1.15-.67,3.63,3.63,0,0,0-1.36-.22A3.39,3.39,0,0,0,67,4.85a3.9,3.9,0,0,0-1.26,1.2,5.36,5.36,0,0,0-.76,1.66,6.72,6.72,0,0,0-.24,1.89A6.23,6.23,0,0,0,65,11.52a4.82,4.82,0,0,0,.87,1.54,4,4,0,0,0,1.34,1,3.71,3.71,0,0,0,1.71.34,3.57,3.57,0,0,0,1.39-.3,4.33,4.33,0,0,0,1.13-.74,4.46,4.46,0,0,0,.84-1,4,4,0,0,0,.45-1.2h.17l0,3.13h-.17a4,4,0,0,0-.37-.43c-.13-.13-.21-.2-.26-.2a1,1,0,0,0-.26.16,4.38,4.38,0,0,1-.64.34,6,6,0,0,1-1,.34,7,7,0,0,1-1.4.17,7.07,7.07,0,0,1-2.41-.33,5.15,5.15,0,0,1-1.84-1,4.68,4.68,0,0,1-1.18-1.63,5.52,5.52,0,0,1-.45-2.11C62.94,9.4,62.94,9.21,63,9Zm-2.43-4,0,.14a3.1,3.1,0,0,0-.6.27.89.89,0,0,0-.44.54,1.3,1.3,0,0,0,0,.63c0,.24.07.47.1.69l.12.69c0,.23.07.46.11.7s.09.47.13.73.09.51.15.8l.56,3.17c.05.27.1.53.16.78a1,1,0,0,0,.22.51,1,1,0,0,0,.6.27,3.42,3.42,0,0,0,.69,0l0,.14-4.25.76,0-.14a3.23,3.23,0,0,0,.62-.3,1.38,1.38,0,0,0,.44-.46.48.48,0,0,0,.06-.26,2.27,2.27,0,0,0,0-.37c0-.14,0-.29-.06-.45s0-.3-.07-.45,0-.31-.09-.54-.07-.47-.12-.74-.09-.54-.14-.82-.1-.56-.14-.81l-.49-2.74L58,7.22a4.68,4.68,0,0,0-.11-.47,2.8,2.8,0,0,0-.13-.38.62.62,0,0,0-.18-.25A1.13,1.13,0,0,0,57,5.86a3.7,3.7,0,0,0-.68,0l0-.14ZM44.29,9.55l.05.13-.21.12a1.43,1.43,0,0,0-.3.22.77.77,0,0,0-.22.31.49.49,0,0,0,0,.41,2.82,2.82,0,0,0,.34.5c.21.25.46.56.77.91l1,1.16c.37.42.73.84,1.1,1.24l1,1.14.78.87c0-.08,0-.29,0-.62s0-.77,0-1.28,0-1.08,0-1.72,0-1.3-.08-2l-.72-.81c-.21-.23-.42-.45-.64-.66l-.23-.17a1,1,0,0,0-.33-.14,1.27,1.27,0,0,0-.45,0,2.4,2.4,0,0,0-.58.12l-.05-.14,4.17-1.58,0,.13-.27.15a2.26,2.26,0,0,0-.38.25,1.35,1.35,0,0,0-.29.35.44.44,0,0,0,0,.4,3.17,3.17,0,0,0,.35.48l.79,1,1,1.24L52,12.8l.94,1.1c.28.33.49.56.61.71,0-.07,0-.22,0-.45s0-.5,0-.83,0-.69,0-1.09,0-.81-.05-1.22l-.06-1.25c0-.41,0-.79-.07-1.15a6.09,6.09,0,0,0-.12-1l-.13-.42a.46.46,0,0,0-.25-.28,1.06,1.06,0,0,0-.37-.1,1.48,1.48,0,0,0-.42,0,3.08,3.08,0,0,0-.39.07l-.05-.13,2.94-1.11,0,.13a1.47,1.47,0,0,0-.5.4,1.7,1.7,0,0,0-.2.31s0,.09-.07.18a2.43,2.43,0,0,0-.09.33,4.5,4.5,0,0,0-.06.51c0,.2,0,.45,0,.74,0,.49,0,1,.06,1.63s0,1.22,0,1.85l.06,1.91c0,.63,0,1.24.06,1.81L53.79,17l-.13.05-1.37-1.58L51.05,14,49.9,12.6c-.37-.44-.75-.88-1.12-1.3,0,.46,0,.94,0,1.45s0,1,0,1.55,0,1,0,1.55,0,1,0,1.47l-.09,1.53-.16.06-1.55-1.75-1.42-1.61-1.32-1.49-1.28-1.45-.33-.37-.27-.3-.24-.26L42,11.43l-.19-.16a1.05,1.05,0,0,0-.3-.15,1.31,1.31,0,0,0-.91,0L40.54,11Zm-9.81,5.61.08.12-.39.36a1.13,1.13,0,0,0-.26.43,1.21,1.21,0,0,0,0,.6,2.72,2.72,0,0,0,.4.85c.12.19.22.36.33.52s.22.34.36.54l.5.75c.2.28.44.64.74,1.08a4.23,4.23,0,0,0,.27-.83c.1-.37.19-.78.28-1.21S37,17.48,37,17l.18-1.17a4.51,4.51,0,0,0,0-.73,1,1,0,0,0-.14-.56.65.65,0,0,0-.58-.33,1.51,1.51,0,0,0-.67.17l-.08-.12,3.15-2.15.08.12a3,3,0,0,0-.87,1.33,19.53,19.53,0,0,0-.54,1.89c-.06.26-.12.53-.18.82s-.11.58-.16.87-.1.57-.15.84-.1.52-.13.75l.78.22,1.44.37L41,19.8l1.82.45.46.1.47,0,.38,0h.2c.13,0,.3-.09.5-.17a5.53,5.53,0,0,0,.65-.32l.08.11-2.65,1.81a.74.74,0,0,1-.15,0l-.21,0L40,21.15q-1.22-.33-2.49-.63a5.35,5.35,0,0,0-.7-.14.41.41,0,0,0-.25.05.17.17,0,0,0-.1.13.82.82,0,0,0,0,.18l.79,1.16c.25.36.46.67.65.93s.32.42.48.6a1.09,1.09,0,0,0,.45.34.85.85,0,0,0,.36.05,1.76,1.76,0,0,0,.4-.07,3.35,3.35,0,0,0,.38-.14l.31-.15.08.12-3.78,2.57L36.49,26a3.8,3.8,0,0,0,.46-.53,1.12,1.12,0,0,0,.24-.54.64.64,0,0,0,0-.28,2.84,2.84,0,0,0-.17-.36c-.07-.13-.15-.26-.24-.4l-.26-.4-.3-.45-.41-.62-.47-.69-.47-.69-1.56-2.29c-.2-.3-.4-.57-.59-.81a1.2,1.2,0,0,0-.53-.43,1.11,1.11,0,0,0-.6,0,2.25,2.25,0,0,0-.63.24l-.08-.12Zm-7.17,5.08.1.1a6,6,0,0,0-.34.58.92.92,0,0,0,0,.71,1.46,1.46,0,0,0,.35.51l.49.51.5.49.51.49.54.52.58.56L32.42,27a1.44,1.44,0,0,1,.43.72,2.44,2.44,0,0,1,0,.86,2.85,2.85,0,0,1-.28,1,3,3,0,0,1-.51.76,1.93,1.93,0,0,1-.35.29,1.27,1.27,0,0,1-.4.17.72.72,0,0,1-.41,0,.84.84,0,0,1-.41-.24.69.69,0,0,1-.22-.57.83.83,0,0,1,.25-.57.63.63,0,0,1,.48-.21.64.64,0,0,1,.5.19.55.55,0,0,1,.21.47,1.17,1.17,0,0,1-.2.5l0,0a.51.51,0,0,0,.24,0,.66.66,0,0,0,.21-.15.76.76,0,0,0,.23-.57,1.42,1.42,0,0,0-.18-.62,4.78,4.78,0,0,0-.43-.58c-.18-.2-.36-.39-.55-.58s-.22-.22-.38-.38L30.18,27l-.61-.58-.6-.57L27,24l-.37-.35c-.12-.12-.25-.23-.37-.33s-.24-.18-.34-.25a.7.7,0,0,0-.29-.11,1,1,0,0,0-.62.17c-.2.13-.4.28-.59.43l-.1-.09Zm-8,9.47,2.31.61,2.11.56,2,.53,1.88.49c.3.08.56.15.77.19l.72.13h.23a2.08,2.08,0,0,0,.4,0,1.46,1.46,0,0,0,.44-.18,1.23,1.23,0,0,0,.44-.39l.14.1-2.41,3.4L28.23,35l.09-.18a1.5,1.5,0,0,0,.12-.34,1.14,1.14,0,0,0,0-.37.45.45,0,0,0-.19-.3,1.84,1.84,0,0,0-.39-.18l-.71-.23-1-.27c-.35-.1-.72-.2-1.1-.29L22.92,36c.22.32.42.64.61.93s.38.6.58.9a3.51,3.51,0,0,0,.71.87.45.45,0,0,0,.31.09.91.91,0,0,0,.33-.13,1.26,1.26,0,0,0,.32-.25c.1-.09.19-.19.28-.28l.11.08-1.75,2.48-.13-.09a1.67,1.67,0,0,0,.21-.63,2.17,2.17,0,0,0,0-.38,3.29,3.29,0,0,0-.2-.54,10.09,10.09,0,0,0-.57-1.08c-.25-.42-.53-.9-.86-1.43l-1-1.64-1-1.69c-.35-.56-.68-1.09-1-1.59l-.34-.06a2.44,2.44,0,0,0,.05-.53,3.28,3.28,0,0,0-.17-.9l-.12-.28ZM11.6,44.42a7.55,7.55,0,0,0,.39-.71l.42-.88c.12-.25.24-.5.35-.75s.22-.49.33-.74l.39-.87c.15-.32.28-.6.39-.85l.34-.76c.1-.24.21-.5.33-.76s.24-.55.39-.88a5.37,5.37,0,0,0,.25-.74c0-.21.08-.42.11-.65l2.72.74v.13l-.6,0a6,6,0,0,0-.61.07l-.54.11a2.32,2.32,0,0,0-.39.12,1.53,1.53,0,0,0-.61.43,4.55,4.55,0,0,0-.47.77c-.07.17-.14.31-.2.43l-.17.36-.17.37-.22.48.88.41,1.17.54,1.21.54,1,.45,2.88,1.31.73.3a.93.93,0,0,0,.54.1,1.05,1.05,0,0,0,.64-.37q.27-.32.45-.57l.13.05-1.91,4.22-.13-.06a4.41,4.41,0,0,0,.16-.7,1.38,1.38,0,0,0-.15-.81.42.42,0,0,0-.17-.19,2.77,2.77,0,0,0-.31-.21l-.4-.21-.43-.2-.47-.22-.66-.32-.75-.35-.74-.33-4.29-2c-.09.18-.16.34-.22.48l-.17.38c-.05.11-.11.23-.16.36s-.11.27-.19.44a3.3,3.3,0,0,0-.25.86,1.66,1.66,0,0,0,.1.75,2.05,2.05,0,0,0,.16.37c.08.14.17.3.27.46a3.59,3.59,0,0,0,.33.5,3.23,3.23,0,0,0,.38.43l-.09.1-2.29-1.51ZM2.05,101a23.66,23.66,0,0,1-.93-5.77c0-.31.81-1,1.29-1a3.76,3.76,0,0,1,4.23,3.48c.09.7.16,1.4.24,2.1.12.1-.62,2.12-1.36,2.41A2.55,2.55,0,0,1,2.05,101Zm2.32,3.74c2-1.58,4.23-.26,6.41,0Zm6.91-1.45c-2,.19-3-.23-3.45-2.13A22.53,22.53,0,0,1,7.24,97c-.09-1.35.49-2,2-1.65,2.82.65,3.64,1.73,3.7,5.13C12.88,101.68,13.3,103.08,11.28,103.27ZM33.47,114c-4.9.07-9.74-.2-14.18-2.6,0-.19.08-.38.11-.57l14.18,2.55C33.55,113.63,33.5,113.84,33.47,114Zm-6.35-2.78-3-.43c-3.08-.46-6-2.19-8.91-3.45a2,2,0,0,1-.75-.64l-.33-.42a4.63,4.63,0,0,0-.32-.42c-.34-.38-.65-.79-.91-1.1.78-.17,1.31-1.71,1-2.89A11.8,11.8,0,0,1,13.72,98c.16-1.41,1.31-1.07,2.27-.84,3.48.86,6.93,2,10.46,2.51,5.15.67,10.37.81,15.56,1.18,2,.14,4,.31,6,.46a1.79,1.79,0,0,1,1.92,2.08c0,2.39.13,4.77.23,7.16,0,.07,0,.16,0,.26a2.78,2.78,0,0,1-.73,2.36h0a1.79,1.79,0,0,1-1.13.3h-.18C41.07,112.87,34.07,112.22,27.12,111.26Zm46.39,5.36c-1.6-.71-2.82,0-4.14.84a5.37,5.37,0,0,1-3.07,1.07c-4.43-.61-8.82-1.6-13.25-2.21-4.69-.65-9.41-1-14.12-1.55-1-.11-1.9-.39-2.84-.58,0-.22,0-.42,0-.64.64,0,1.27,0,1.9,0a137.57,137.57,0,0,1,24.3,3.6c2.42.59,4.9,1.15,7.22-1,.74-.68,2.65-.11,4-.11Zm4.69.2a4.08,4.08,0,0,1-4.06,2.53c1.25-6.29,2.55-12.4,7.52-16.89,1.94-1.76,4.32-2.43,7.58-1.81-5.28,1.92-7,6.09-8.67,10.3C79.8,112.91,79.09,114.91,78.2,116.82Zm9.49,10.91c-.57.9-2,2-2.71,1.88s-1.78-1.61-2-2.65c-1.07-4.24,0-8.4.93-12.53a20.11,20.11,0,0,1,1.45-4.36c.79-1.66,2.06-2,3.74-1.48-3.49,3.06-5.39,11.39-3.21,15.23A7,7,0,0,0,87.05,122a44,44,0,0,0,.9-4.71c.16-1.1.55-1.68,1.92-1.18C89.85,120.09,89.92,124.15,87.69,127.73ZM88.78,94c-.06-.14-.13-.27-.2-.4l12.73-6.34.2.39Zm16.79,8.47-.18-.25c.23-.19.46-.4.71-.57s.67-.38,1-.56c2.86-1.6,5.75-3.14,8.55-4.83a4,4,0,0,0,1.51-2c1.13-3.43,3-6,7-6.86-3.68,3.9-3,2.28-5,8.49Zm15.78,1.66c.32-1.34.56-2.4.93-4l1.14-.69C124.51,101.77,124.34,102.18,121.35,104.13Zm3-8.78c-.16-.42-.31-.83-.46-1.24l-.54,0L123,97.16c-.32-.27-.73-.55-1-.76l-.14-.13c-.09-.08-.14-.15-.12-.19.48-1.21,1.12-2.35,1.71-3.52l.77.19c.17.82.34,1.64.5,2.46ZM21.11,33.07c.21.35.46.74.74,1.18l.9,1.42,2.06-2.89-1.33-.34-1.29-.32-1.13-.28-.84-.2.33.54Zm2.37-.63-1.29-.32-1.13-.28-.84-.2.33.54.56.89c.21.35.46.74.74,1.18l.9,1.42,2.06-2.89Zm0,0-1.29-.32-1.13-.28-.84-.2.33.54.56.89c.21.35.46.74.74,1.18l.9,1.42,2.06-2.89Zm0,0-1.29-.32-1.13-.28-.84-.2.33.54.56.89c.21.35.46.74.74,1.18l.9,1.42,2.06-2.89Zm0,0-1.29-.32-1.13-.28-.84-.2.33.54.56.89c.21.35.46.74.74,1.18l.9,1.42,2.06-2.89Zm0,0-1.29-.32-1.13-.28-.84-.2.33.54.56.89c.21.35.46.74.74,1.18l.9,1.42,2.06-2.89Zm0,0-1.29-.32-1.13-.28-.84-.2.33.54.56.89c.21.35.46.74.74,1.18l.9,1.42,2.06-2.89Zm0,0-1.29-.32-1.13-.28-.84-.2.33.54.56.89c.21.35.46.74.74,1.18l.9,1.42,2.06-2.89Zm0,0-1.29-.32-1.13-.28-.84-.2.33.54.56.89c.21.35.46.74.74,1.18l.9,1.42,2.06-2.89Z"/><path class="cls-4" d="M48.24,29.44l-.12.07a2.21,2.21,0,0,1,.12.74,1.05,1.05,0,0,1-.15.49,1.4,1.4,0,0,1-.4.34l-.26.16q-.33.21-.48.15a2,2,0,0,1-.52-.66l-.5-.8.38-.23a1.46,1.46,0,0,1,.32-.17.34.34,0,0,1,.22,0,1.14,1.14,0,0,1,.28.35l.12-.07-.72-1.16-.12.07a1.43,1.43,0,0,1,.18.36.28.28,0,0,1-.05.21,1.21,1.21,0,0,1-.32.25l-.36.23L45,28.38l.48-.29a2.33,2.33,0,0,1,.54-.28.59.59,0,0,1,.39,0,1.57,1.57,0,0,1,.51.38l.12-.07-.61-.8L44,28.85l.08.11a.82.82,0,0,1,.35-.15.27.27,0,0,1,.2.11,3.52,3.52,0,0,1,.34.5l1,1.66a5.65,5.65,0,0,1,.31.54.37.37,0,0,1,0,.23.63.63,0,0,1-.29.27l-.07.05.07.11,2.81-1.74Z"/><path class="cls-4" d="M50.32,29.07a.88.88,0,0,0-.29-.32,1.27,1.27,0,0,0-.75-.1,1.9,1.9,0,0,1-.53,0,.36.36,0,0,1-.23-.19.32.32,0,0,1,0-.27.37.37,0,0,1,.2-.23.52.52,0,0,1,.44,0,1,1,0,0,1,.42.3l.09-.05-.34-.66-.1.06a.9.9,0,0,1,0,.24.62.62,0,0,0-.58,0,.59.59,0,0,0-.33.41.74.74,0,0,0,.07.49.59.59,0,0,0,.33.29,1.61,1.61,0,0,0,.63.07,1.89,1.89,0,0,1,.55,0,.46.46,0,0,1,.29.53.4.4,0,0,1-.23.28c-.3.16-.62.07-.95-.27l-.1.05.37.7.1-.05a.7.7,0,0,1,0-.29A.81.81,0,0,0,50,30a.76.76,0,0,0,.37-.42A.67.67,0,0,0,50.32,29.07Z"/><path class="cls-4" d="M52.09,28.51a.43.43,0,0,1-.23.38.3.3,0,0,1-.21,0,.33.33,0,0,1-.2-.11,2.77,2.77,0,0,1-.22-.4l-.62-1.32.66-.31-.06-.12-.66.31-.32-.68-.09,0a1,1,0,0,1,0,.6.63.63,0,0,1-.3.37l0,.12.32-.15.58,1.24a3.09,3.09,0,0,0,.29.51.54.54,0,0,0,.31.18.59.59,0,0,0,.39,0,.74.74,0,0,0,.28-.25.62.62,0,0,0,.12-.38Z"/><path class="cls-4" d="M55.66,27.33l-.1,0a.48.48,0,0,1-.27,0,.22.22,0,0,1-.13-.12q0-.09-.18-.45L53.92,23.9l-.13,0a1.21,1.21,0,0,1-.64.45l.05.13.12,0a.44.44,0,0,1,.28,0,.23.23,0,0,1,.12.12,4.74,4.74,0,0,1,.17.45l.72,2,.16.46a.3.3,0,0,1,0,.16.49.49,0,0,1-.24.15l-.09,0,0,.13,1.25-.45Z"/><path class="cls-4" d="M58.46,24.43a2.76,2.76,0,0,0-.36-.8,1.47,1.47,0,0,0-.6-.56,1.07,1.07,0,0,0-.79-.07,1.09,1.09,0,0,0-.72.6,1.26,1.26,0,0,0-.08.95,1.18,1.18,0,0,0,.58.77,1.12,1.12,0,0,0,.89.13.89.89,0,0,0,.38-.23,1.29,1.29,0,0,0,.28-.41c0,.05,0,.1.05.15a2.61,2.61,0,0,1,.11,1.25.74.74,0,0,1-.56.59.5.5,0,0,1-.54-.13.31.31,0,0,0-.29-.13.15.15,0,0,0-.12.21c0,.11.14.19.33.23a1,1,0,0,0,.58,0,1.23,1.23,0,0,0,.89-.9A2.84,2.84,0,0,0,58.46,24.43Zm-.62.48a.72.72,0,0,1-.45.37.67.67,0,0,1-.44,0,.66.66,0,0,1-.33-.26,1.74,1.74,0,0,1-.23-.54,1.61,1.61,0,0,1-.06-.9.6.6,0,0,1,.45-.43.64.64,0,0,1,.45,0,1,1,0,0,1,.38.35,2.5,2.5,0,0,1,.23.53A1.13,1.13,0,0,1,57.84,24.91Z"/><path class="cls-4" d="M61.49,23.79a3,3,0,0,0-.3-.84,1.45,1.45,0,0,0-.56-.59,1,1,0,0,0-.78-.13,1.1,1.1,0,0,0-.77.55,1.33,1.33,0,0,0-.14.94,1.22,1.22,0,0,0,.52.81,1.12,1.12,0,0,0,.88.19.91.91,0,0,0,.39-.2,1.29,1.29,0,0,0,.31-.4,1.24,1.24,0,0,1,0,.16,2.55,2.55,0,0,1,0,1.26.75.75,0,0,1-.6.55.5.5,0,0,1-.52-.18c-.1-.11-.19-.16-.29-.14a.15.15,0,0,0-.13.2c0,.11.13.19.31.25a1.13,1.13,0,0,0,.58,0,1.27,1.27,0,0,0,.95-.85A2.71,2.71,0,0,0,61.49,23.79Zm-.65.43a.73.73,0,0,1-.48.33.64.64,0,0,1-.43-.05.65.65,0,0,1-.32-.29,1.92,1.92,0,0,1-.19-.55,1.58,1.58,0,0,1,0-.9.6.6,0,0,1,.48-.4.62.62,0,0,1,.44.07.87.87,0,0,1,.35.38,2.37,2.37,0,0,1,.2.54A1.19,1.19,0,0,1,60.84,24.22Z"/><path class="cls-4" d="M64.55,23.36a3,3,0,0,0-.24-.85,1.47,1.47,0,0,0-.51-.64,1.05,1.05,0,0,0-.78-.18,1.09,1.09,0,0,0-.8.49A1.35,1.35,0,0,0,62.47,24a1.1,1.1,0,0,0,.86.25.86.86,0,0,0,.41-.16,1.27,1.27,0,0,0,.34-.38l0,.16A2.61,2.61,0,0,1,64,25.08a.76.76,0,0,1-.64.5.5.5,0,0,1-.51-.21c-.09-.12-.18-.18-.27-.16s-.17.07-.15.18.11.21.29.28a1.22,1.22,0,0,0,.58.07,1.26,1.26,0,0,0,1-.78A2.87,2.87,0,0,0,64.55,23.36Zm-.68.38a.76.76,0,0,1-.5.3.72.72,0,0,1-.43-.08.81.81,0,0,1-.3-.31,2,2,0,0,1-.14-.57,1.74,1.74,0,0,1,.06-.89.62.62,0,0,1,.51-.37.64.64,0,0,1,.44.11.88.88,0,0,1,.33.4,2.14,2.14,0,0,1,.15.55A1.2,1.2,0,0,1,63.87,23.74Z"/><path class="cls-5" d="M44.31,32l-.07.06-1,.84a0,0,0,0,0,0,0l.32,1.31v0l-1.19-.73-1.19.73v0c.1-.43.2-.87.31-1.3,0,0,0,0,0,0l-1-.87,0,0h.09l.56,0,.61-.05h.12a0,0,0,0,0,0,0c.09-.22.19-.44.28-.67l.24-.58v0l.06.13c.15.38.31.76.47,1.14,0,0,0,0,0,0l.56,0L44,32Z"/><path class="cls-5" d="M41.07,34.77l-.08.07-1,.83s0,0,0,0L40.32,37v0l-1.19-.73L38,37v0c.11-.44.21-.87.32-1.31a0,0,0,0,0,0,0l-1-.88,0,0h.09l.56-.05.61,0h.14c.09-.23.18-.45.28-.67l.24-.59v0l.06.14c.15.38.31.76.47,1.13,0,0,0,0,0,0l.57.05.46,0Z"/><path class="cls-5" d="M69.37,21.86l0,.09c-.13.4-.27.81-.4,1.22,0,0,0,0,0,0l1,1,0,0h-1.4l-.64,1.24v0l-.41-1.28s0,0,0,0l-1.33-.22h0l.06-.05.46-.33.5-.36.09-.07s0,0,0,0c0-.24-.07-.48-.11-.71L67,21.68v0l.12.09,1,.72a0,0,0,0,0,0,0l.51-.25.41-.21Z"/><path class="cls-5" d="M74.29,22.3l-.05.08-.72,1.06s0,0,0,0l.65,1.18v0l-1.34-.39-1,1v0c0-.44,0-.89,0-1.34l0,0-1.22-.57h0l.08,0,.53-.19.57-.21.11,0s0,0,0,0l.09-.71c0-.21.06-.42.08-.63v0l.09.11.75,1,0,0,.56-.11.45-.09Z"/></g></g></svg>